# xmcd
#
# Track frame offsets: 
#        182
#        14770
#        21960
#        41237
#        53662
#        65775
#        82270
#        98550
#        101070
#        109227
#        124832
#        127245
#        139802
#        149847
#        162760
#        174260
#        189120
#        194037
#        213035
#        223777
#
# Disc length: 3224 seconds
#
# Revision: 2
# Processed by: cddbd v1.5.2PL0 Copyright (c) Steve Scherf et al.
# Submitted via: ExactAudioCopy v0.95b4
#
DISCID=390c9614
DTITLE=Beastie Boys - Check Your Head
DYEAR=1992
DGENRE=Hip-Hop
TTITLE0=Jimmy James
TTITLE1=Funky Boss
TTITLE2=Pass the Mic
TTITLE3=Gratitude
TTITLE4=Lighten Up
TTITLE5=Finger Lickin' Good
TTITLE6=So What'cha Want
TTITLE7=The Biz vs The Nuge
TTITLE8=Time For Livin'
TTITLE9=Something's Got to Give
TTITLE10=The Blue Nun
TTITLE11=Stand Together
TTITLE12=Pow
TTITLE13=The Maestro
TTITLE14=Groove Holmes
TTITLE15=Live at P.J.'s
TTITLE16=Mark On The Bus
TTITLE17=Professor Booly
TTITLE18=In 3's
TTITLE19=Namasté
EXTD=
EXTT0=
EXTT1=
EXTT2=
EXTT3=
EXTT4=
EXTT5=
EXTT6=
EXTT7=
EXTT8=
EXTT9=
EXTT10=
EXTT11=
EXTT12=
EXTT13=
EXTT14=
EXTT15=
EXTT16=
EXTT17=
EXTT18=
EXTT19=
PLAYORDER=
